REM MD5 53b43d0d46b2a78f196424c8610d5f94
FILE "Tekkyuu - True Pinball (Japan).bin" BINARY
  TRACK 01 MODE2/2352
    INDEX 01 00:00:00
  TRACK 02 AUDIO
    INDEX 00 03:14:00
    INDEX 01 03:16:00
  TRACK 03 AUDIO
    INDEX 00 06:21:17
    INDEX 01 06:23:17
  TRACK 04 AUDIO
    INDEX 00 09:44:26
    INDEX 01 09:46:26
  TRACK 05 AUDIO
    INDEX 00 13:25:51
    INDEX 01 13:27:51
  TRACK 06 AUDIO
    INDEX 00 15:20:36
    INDEX 01 15:22:36
  TRACK 07 AUDIO
    INDEX 00 18:23:53
    INDEX 01 18:25:53
  TRACK 08 AUDIO
    INDEX 00 19:02:51
    INDEX 01 19:04:51
  TRACK 09 AUDIO
    INDEX 00 19:48:27
    INDEX 01 19:50:27
  TRACK 10 AUDIO
    INDEX 00 20:29:17
    INDEX 01 20:31:17
  TRACK 11 AUDIO
    INDEX 00 21:21:68
    INDEX 01 21:23:68
  TRACK 12 AUDIO
    INDEX 00 22:02:58
    INDEX 01 22:04:58
  TRACK 13 AUDIO
    INDEX 00 22:34:63
    INDEX 01 22:36:63
  TRACK 14 AUDIO
    INDEX 00 23:12:02
    INDEX 01 23:14:02
  TRACK 15 AUDIO
    INDEX 00 23:58:60
    INDEX 01 24:00:60
  TRACK 16 AUDIO
    INDEX 00 24:48:66
    INDEX 01 24:50:66
  TRACK 17 AUDIO
    INDEX 00 25:31:09
    INDEX 01 25:33:09
  TRACK 18 AUDIO
    INDEX 00 26:09:67
    INDEX 01 26:11:67
  TRACK 19 AUDIO
    INDEX 00 26:58:02
    INDEX 01 27:00:02
  TRACK 20 AUDIO
    INDEX 00 27:45:63
    INDEX 01 27:47:63
  TRACK 21 AUDIO
    INDEX 00 28:26:23
    INDEX 01 28:28:23
  TRACK 22 AUDIO
    INDEX 00 29:25:61
    INDEX 01 29:27:61
  TRACK 23 AUDIO
    INDEX 00 30:11:11
    INDEX 01 30:13:11
  TRACK 24 AUDIO
    INDEX 00 30:54:39
    INDEX 01 30:56:39
  TRACK 25 AUDIO
    INDEX 00 31:48:01
    INDEX 01 31:50:01
  TRACK 26 AUDIO
    INDEX 00 32:29:14
    INDEX 01 32:31:14
  TRACK 27 AUDIO
    INDEX 00 33:19:43
    INDEX 01 33:21:43
  TRACK 28 AUDIO
    INDEX 00 33:57:07
    INDEX 01 33:59:07
  TRACK 29 AUDIO
    INDEX 00 34:45:23
    INDEX 01 34:47:23
  TRACK 30 AUDIO
    INDEX 00 35:29:15
    INDEX 01 35:31:15
  TRACK 31 AUDIO
    INDEX 00 36:16:13
    INDEX 01 36:18:13
  TRACK 32 AUDIO
    INDEX 00 37:51:72
    INDEX 01 37:53:72
  TRACK 33 AUDIO
    INDEX 00 39:08:70
    INDEX 01 39:10:70
  TRACK 34 AUDIO
    INDEX 00 40:18:08
    INDEX 01 40:20:08
  TRACK 35 AUDIO
    INDEX 00 41:21:21
    INDEX 01 41:23:21
  TRACK 36 AUDIO
    INDEX 00 42:38:68
    INDEX 01 42:40:68
  TRACK 37 AUDIO
    INDEX 00 43:32:41
    INDEX 01 43:34:41
  TRACK 38 AUDIO
    INDEX 00 44:20:56
    INDEX 01 44:22:56
  TRACK 39 AUDIO
    INDEX 00 45:07:04
    INDEX 01 45:09:04
  TRACK 40 AUDIO
    INDEX 00 46:05:34
    INDEX 01 46:07:34
  TRACK 41 AUDIO
    INDEX 00 47:03:32
    INDEX 01 47:05:32
  TRACK 42 AUDIO
    INDEX 00 48:24:10
    INDEX 01 48:26:10
  TRACK 43 AUDIO
    INDEX 00 49:12:39
    INDEX 01 49:14:39
  TRACK 44 AUDIO
    INDEX 00 50:04:00
    INDEX 01 50:06:00
  TRACK 45 AUDIO
    INDEX 00 50:38:38
    INDEX 01 50:40:38
  TRACK 46 AUDIO
    INDEX 00 51:54:05
    INDEX 01 51:56:05
  TRACK 47 AUDIO
    INDEX 00 52:36:21
    INDEX 01 52:38:21
  TRACK 48 AUDIO
    INDEX 00 53:15:39
    INDEX 01 53:17:39
  TRACK 49 AUDIO
    INDEX 00 53:56:62
    INDEX 01 53:58:62
  TRACK 50 AUDIO
    INDEX 00 54:44:67
    INDEX 01 54:46:67
REM LEADOUT 61:20:64
